<?xml version="1.0" encoding="iso-8859-1"?>
<!-- Generator: Adobe Illustrator 19.0.0, SVG Export Plug-In . SVG Version: 6.00 Build 0)  -->
<svg version="1.1" id="Capa_1" xmlns="http://www.w3.org/2000/svg" xmlns:xlink="http://www.w3.org/1999/xlink" x="0px" y="0px"
	 viewBox="0 0 512 512" style="enable-background:new 0 0 512 512;" xml:space="preserve">
<path style="fill:#55B56A;" d="M420.881,208.271v34.712h43.39V0H47.729v242.983h52.068v-52.068c0-4.79,3.888-8.678,8.678-8.678
	h69.424c1.345,0.026,2.664,0.364,3.844,0.998v-0.087l27.084,13.546l23.17-44.501l15.395,8.018l-27.119,52.068
	c-1.493,2.855-4.443,4.66-7.663,4.669c-1.345,0-2.673-0.312-3.879-0.911l-22.155-11.082v38.027h182.237v-34.712H420.881z
	 M143.186,164.881c-23.96,0-43.39-19.43-43.39-43.39s19.43-43.39,43.39-43.39s43.39,19.43,43.39,43.39
	C186.55,145.443,167.138,164.855,143.186,164.881z M290.712,26.034h130.169c4.79,0,8.678,3.888,8.678,8.678
	s-3.888,8.678-8.678,8.678H290.712c-4.79,0-8.678-3.888-8.678-8.678S285.922,26.034,290.712,26.034z M290.712,60.746h130.169
	c4.79,0,8.678,3.888,8.678,8.678s-3.888,8.678-8.678,8.678H290.712c-4.79,0-8.678-3.888-8.678-8.678S285.922,60.746,290.712,60.746z
	 M290.712,95.458h130.169c4.79,0,8.678,3.888,8.678,8.678c0,4.79-3.888,8.678-8.678,8.678H290.712c-4.79,0-8.678-3.888-8.678-8.678
	C282.034,99.345,285.922,95.458,290.712,95.458z M290.712,130.169h130.169c4.79,0,8.678,3.888,8.678,8.678s-3.888,8.678-8.678,8.678
	H290.712c-4.79,0-8.678-3.888-8.678-8.678S285.922,130.169,290.712,130.169z M290.712,182.237c-4.79,0-8.678-3.888-8.678-8.678
	s3.888-8.678,8.678-8.678h130.169c4.79,0,8.678,3.888,8.678,8.678s-3.888,8.678-8.678,8.678H290.712z"/>
<circle style="fill:#FFD782;" cx="438.237" cy="347.119" r="43.39"/>
<path style="fill:#32B1CC;" d="M403.525,407.864h69.424c4.79,0,8.678,3.888,8.678,8.678v86.78c0,4.79-3.888,8.678-8.678,8.678
	h-69.424c-4.79,0-8.678-3.888-8.678-8.678v-86.78C394.847,411.752,398.735,407.864,403.525,407.864z"/>
<circle style="fill:#FFD782;" cx="73.763" cy="347.119" r="43.39"/>
<path style="fill:#32B1CC;" d="M39.051,407.864h69.424c4.79,0,8.678,3.888,8.678,8.678v86.78c0,4.79-3.888,8.678-8.678,8.678H39.051
	c-4.79,0-8.678-3.888-8.678-8.678v-86.78C30.373,411.752,34.261,407.864,39.051,407.864z"/>
<circle style="fill:#FFD782;" cx="256" cy="347.119" r="43.39"/>
<path style="fill:#32B1CC;" d="M221.288,407.864h69.424c4.79,0,8.678,3.888,8.678,8.678v86.78c0,4.79-3.888,8.678-8.678,8.678
	h-69.424c-4.79,0-8.678-3.888-8.678-8.678v-86.78C212.61,411.752,216.498,407.864,221.288,407.864z"/>
<g>
	<path style="fill:#FFFFFF;" d="M290.712,78.102h130.169c4.79,0,8.678-3.888,8.678-8.678s-3.888-8.678-8.678-8.678H290.712
		c-4.79,0-8.678,3.888-8.678,8.678S285.922,78.102,290.712,78.102z"/>
	<path style="fill:#FFFFFF;" d="M290.712,43.39h130.169c4.79,0,8.678-3.888,8.678-8.678s-3.888-8.678-8.678-8.678H290.712
		c-4.79,0-8.678,3.888-8.678,8.678S285.922,43.39,290.712,43.39z"/>
	<path style="fill:#FFFFFF;" d="M290.712,112.814h130.169c4.79,0,8.678-3.888,8.678-8.678c0-4.79-3.888-8.678-8.678-8.678H290.712
		c-4.79,0-8.678,3.888-8.678,8.678C282.034,108.926,285.922,112.814,290.712,112.814z"/>
	<path style="fill:#FFFFFF;" d="M290.712,147.525h130.169c4.79,0,8.678-3.888,8.678-8.678s-3.888-8.678-8.678-8.678H290.712
		c-4.79,0-8.678,3.888-8.678,8.678S285.922,147.525,290.712,147.525z"/>
	<path style="fill:#FFFFFF;" d="M429.559,173.559c0-4.79-3.888-8.678-8.678-8.678H290.712c-4.79,0-8.678,3.888-8.678,8.678
		s3.888,8.678,8.678,8.678h130.169C425.672,182.237,429.559,178.35,429.559,173.559z"/>
</g>
<rect x="368.814" y="208.271" style="fill:#D3843D;" width="52.068" height="34.712"/>
<g>
	<circle style="fill:#FFD782;" cx="143.186" cy="121.492" r="43.39"/>
	<path style="fill:#FFD782;" d="M186.576,190.915v14.041l22.155,11.125c1.206,0.581,2.534,0.876,3.879,0.868
		c3.237,0,6.205-1.796,7.697-4.669l27.119-52.068l-15.395-8.018l-23.17,44.501l-27.084-13.546v0.087
		C184.702,184.676,186.559,187.652,186.576,190.915z"/>
</g>
<path style="fill:#238892;" d="M186.576,190.915c-0.017-3.272-1.892-6.248-4.834-7.68c-1.18-0.633-2.499-0.972-3.844-0.998h-69.424
	c-4.79,0-8.678,3.888-8.678,8.678v86.78c0,4.79,3.888,8.678,8.678,8.678h69.424c4.79,0,8.678-3.888,8.678-8.678V190.915z"/>
<g>
</g>
<g>
</g>
<g>
</g>
<g>
</g>
<g>
</g>
<g>
</g>
<g>
</g>
<g>
</g>
<g>
</g>
<g>
</g>
<g>
</g>
<g>
</g>
<g>
</g>
<g>
</g>
<g>
</g>
</svg>
