<?xml version="1.0" encoding="iso-8859-1"?>
<!-- Generator: Adobe Illustrator 19.0.0, SVG Export Plug-In . SVG Version: 6.00 Build 0)  -->
<svg version="1.1" id="Capa_1" xmlns="http://www.w3.org/2000/svg" xmlns:xlink="http://www.w3.org/1999/xlink" x="0px" y="0px"
	 viewBox="0 0 512 512" style="enable-background:new 0 0 512 512;" xml:space="preserve">
<path style="fill:#96C9EF;" d="M315.733,452.267v51.2h153.6v-51.2H315.733z"/>
<g>
	<path style="fill:#231F20;" d="M486.4,361.045v-62.379c0.051-6.758-2.637-13.252-7.458-17.988
		c-7.262-7.151-18.022-9.421-27.563-5.82c-1.135-4.275-3.405-8.158-6.571-11.247c-8.209-7.979-20.634-9.728-30.72-4.326
		c-0.973-1.527-2.125-2.935-3.413-4.207c-7.006-6.938-17.34-9.318-26.675-6.153v-61.193c0.051-6.758-2.637-13.252-7.458-17.988
		c-5.316-5.436-12.791-8.201-20.369-7.518c-13.44,1.485-23.561,12.937-23.373,26.462v101.444h-8.533c-14.14,0-25.6,11.46-25.6,25.6
		v45.577c0.034,28.681,6.921,56.943,20.087,82.423h-3.021c-4.71,0-8.533,3.823-8.533,8.533v51.2c0,4.71,3.823,8.533,8.533,8.533
		h153.6c4.71,0,8.533-3.823,8.533-8.533v-51.2c0-4.71-3.823-8.533-8.533-8.533h-3.149l0.7-1.382
		C479.684,417.161,486.366,389.308,486.4,361.045z M460.8,494.933H324.266V460.8H460.8V494.933z M337.979,443.733l-3.977-7.68
		c-11.972-23.1-18.244-48.725-18.27-74.743v-45.577c0-4.71,3.823-8.533,8.533-8.533h8.533v42.667c0,4.71,3.823,8.533,8.533,8.533
		c4.71,0,8.533-3.823,8.533-8.533V188.689c-0.188-4.668,3.132-8.738,7.74-9.489c2.56-0.256,5.103,0.691,6.869,2.56
		c1.604,1.57,2.492,3.729,2.458,5.973v110.933c0,4.71,3.823,8.533,8.533,8.533c4.71,0,8.533-3.823,8.533-8.533v-25.6
		c0-4.71,3.823-8.533,8.533-8.533c2.295-0.009,4.497,0.939,6.076,2.611c1.596,1.553,2.483,3.695,2.458,5.922v42.667
		c0,4.71,3.823,8.533,8.533,8.533s8.533-3.823,8.533-8.533V281.6c0-4.71,3.823-8.533,8.533-8.533
		c2.295-0.009,4.497,0.939,6.076,2.611c1.596,1.553,2.483,3.695,2.458,5.922v51.2c0,4.71,3.823,8.533,8.533,8.533
		s8.533-3.823,8.533-8.533v-34.133c0-4.71,3.823-8.533,8.533-8.533c2.296-0.009,4.497,0.939,6.076,2.611
		c1.596,1.553,2.483,3.695,2.458,5.922v62.379c-0.026,25.566-6.076,50.773-17.655,73.566l-4.642,9.122H337.979z"/>
	<path style="fill:#231F20;" d="M443.733,486.4h-17.067c-4.71,0-8.533-3.823-8.533-8.533s3.823-8.533,8.533-8.533h17.067
		c4.71,0,8.533,3.823,8.533,8.533S448.443,486.4,443.733,486.4z"/>
	<path style="fill:#231F20;" d="M284.441,512H34.133c-4.71,0-8.533-3.823-8.533-8.533V8.533C25.6,3.823,29.423,0,34.133,0H409.6
		c4.71,0,8.533,3.823,8.533,8.533v213.333c0,4.71-3.823,8.533-8.533,8.533s-8.533-3.823-8.533-8.533v-204.8h-358.4v477.867h241.775
		c4.71,0,8.533,3.823,8.533,8.533C292.975,508.177,289.152,512,284.441,512z"/>
	<path style="fill:#231F20;" d="M290.133,162.133h-204.8c-4.71,0-8.533-3.823-8.533-8.533s3.823-8.533,8.533-8.533h204.8
		c4.71,0,8.533,3.823,8.533,8.533S294.843,162.133,290.133,162.133z"/>
	<path style="fill:#231F20;" d="M290.133,196.267h-204.8c-4.71,0-8.533-3.823-8.533-8.533c0-4.71,3.823-8.533,8.533-8.533h204.8
		c4.71,0,8.533,3.823,8.533,8.533C298.666,192.444,294.843,196.267,290.133,196.267z"/>
	<path style="fill:#231F20;" d="M290.133,230.4h-204.8c-4.71,0-8.533-3.823-8.533-8.533c0-4.71,3.823-8.533,8.533-8.533h204.8
		c4.71,0,8.533,3.823,8.533,8.533C298.666,226.577,294.843,230.4,290.133,230.4z"/>
	<path style="fill:#231F20;" d="M290.133,264.533h-204.8c-4.71,0-8.533-3.823-8.533-8.533c0-4.71,3.823-8.533,8.533-8.533h204.8
		c4.71,0,8.533,3.823,8.533,8.533C298.666,260.71,294.843,264.533,290.133,264.533z"/>
</g>
<g>
</g>
<g>
</g>
<g>
</g>
<g>
</g>
<g>
</g>
<g>
</g>
<g>
</g>
<g>
</g>
<g>
</g>
<g>
</g>
<g>
</g>
<g>
</g>
<g>
</g>
<g>
</g>
<g>
</g>
</svg>
